<svg width="200" height="20" viewBox="0 0 200 20" fill="none" xmlns="http://www.w3.org/2000/svg">
<g clip-path="url(#clip0_42_200)">
<path d="M27.9202 16V1.06521H34.6195C36.3263 1.06521 37.6705 1.53459 38.5239 2.38801C39.1853 3.04941 39.5266 3.86015 39.5266 4.86292V4.90559C39.5266 6.69776 38.5025 7.65786 37.3931 8.23391C39.1426 8.8313 40.3587 9.83407 40.3587 11.8609V11.9036C40.3587 14.5705 38.1612 16 34.8329 16H27.9202ZM30.5018 7.35916H34.0861C35.7716 7.35916 36.9024 6.69776 36.9024 5.3323V5.28962C36.9024 4.11618 35.9636 3.39077 34.2781 3.39077H30.5018V7.35916ZM30.5018 13.6744H34.8542C36.6464 13.6744 37.7345 12.9704 37.7345 11.6262V11.5836C37.7345 10.3248 36.7317 9.57804 34.6622 9.57804H30.5018V13.6744ZM43.0418 16V0.425152H45.6233V16H43.0418ZM52.7538 16.2347C50.2149 16.2347 48.7427 14.5279 48.7427 11.9036V4.73491H51.3243V11.1355C51.3243 12.885 52.1991 13.8878 53.7352 13.8878C55.2287 13.8878 56.2741 12.8424 56.2741 11.0929V4.73491H58.8557V16H56.2741V14.2505C55.5487 15.3173 54.5033 16.2347 52.7538 16.2347ZM67.138 16.256C63.8736 16.256 61.3561 13.8878 61.3561 10.4101V10.3675C61.3561 7.14581 63.639 4.50021 66.8606 4.50021C70.445 4.50021 72.2585 7.31649 72.2585 10.5595C72.2585 10.7942 72.2371 11.0288 72.2158 11.2849H63.9377C64.215 13.1197 65.5165 14.1438 67.1806 14.1438C68.4394 14.1438 69.3355 13.6744 70.2316 12.7997L71.7464 14.1438C70.6796 15.4239 69.2075 16.256 67.138 16.256ZM63.9163 9.57804H69.6982C69.5275 7.91388 68.5461 6.61242 66.8393 6.61242C65.2604 6.61242 64.151 7.82854 63.9163 9.57804ZM74.7246 19.4137V4.73491H77.3062V6.61242C78.1383 5.43897 79.3117 4.50021 81.1253 4.50021C83.7922 4.50021 86.3738 6.61242 86.3738 10.3461V10.3888C86.3738 14.1225 83.8135 16.2347 81.1253 16.2347C79.2691 16.2347 78.0956 15.2959 77.3062 14.2505V19.4137H74.7246ZM80.5279 13.9945C82.2987 13.9945 83.7495 12.6077 83.7495 10.3888V10.3461C83.7495 8.16991 82.2774 6.74043 80.5279 6.74043C78.7784 6.74043 77.2422 8.19124 77.2422 10.3461V10.3888C77.2422 12.565 78.7784 13.9945 80.5279 13.9945ZM88.8913 16V4.73491H91.4729V7.27382C92.1769 5.58832 93.4784 4.43621 95.4626 4.52155V7.25248H95.3132C93.0517 7.25248 91.4729 8.72463 91.4729 11.7116V16H88.8913ZM97.6209 3.00674V0.553164H100.394V3.00674H97.6209ZM97.7276 16V4.73491H100.309V16H97.7276ZM103.557 16V4.73491H106.138V6.48441C106.864 5.41764 107.909 4.50021 109.658 4.50021C112.197 4.50021 113.67 6.20705 113.67 8.8313V16H111.088V9.59938C111.088 7.84987 110.213 6.84711 108.677 6.84711C107.184 6.84711 106.138 7.89254 106.138 9.64205V16H103.557ZM120.437 16.192C118.538 16.192 117.194 15.3599 117.194 12.885V6.95379H115.765V4.73491H117.194V1.64127H119.776V4.73491H122.805V6.95379H119.776V12.4797C119.776 13.4824 120.288 13.8878 121.162 13.8878C121.738 13.8878 122.25 13.7598 122.763 13.5038V15.616C122.122 15.9787 121.397 16.192 120.437 16.192Z" fill="#1A1A1A"/>
<path d="M128.683 16V10.6906H130.662C132.331 10.6906 133.484 11.8359 133.484 13.3301V13.3453C133.484 14.8395 132.331 16 130.662 16H128.683ZM129.616 15.1505H130.662C131.777 15.1505 132.505 14.3996 132.505 13.3605V13.3453C132.505 12.3062 131.777 11.5401 130.662 11.5401H129.616V15.1505ZM135.248 16V10.6906H139.184V11.525H136.181V12.9054H138.843V13.7397H136.181V15.1657H139.222V16H135.248ZM142.819 16.0758C142.008 16.0758 141.242 15.7952 140.605 15.2263L141.166 14.5589C141.674 14.9988 142.182 15.2491 142.842 15.2491C143.419 15.2491 143.783 14.9836 143.783 14.5816V14.5665C143.783 14.1872 143.57 13.9824 142.584 13.7549C141.454 13.4818 140.817 13.1481 140.817 12.1697V12.1545C140.817 11.2443 141.575 10.6148 142.63 10.6148C143.403 10.6148 144.018 10.8499 144.556 11.2822L144.056 11.9876C143.578 11.6311 143.1 11.4415 142.615 11.4415C142.068 11.4415 141.75 11.7222 141.75 12.0711V12.0862C141.75 12.4958 141.993 12.6779 143.009 12.9206C144.132 13.1936 144.716 13.5956 144.716 14.4755V14.4906C144.716 15.4842 143.934 16.0758 142.819 16.0758ZM146.498 16V10.6906H147.431V16H146.498ZM152.002 16.091C150.341 16.091 149.249 14.9078 149.249 13.3605V13.3453C149.249 11.8587 150.387 10.5996 151.987 10.5996C152.912 10.5996 153.481 10.8575 154.027 11.3202L153.436 12.0256C153.026 11.6767 152.624 11.4567 151.949 11.4567C150.971 11.4567 150.227 12.3138 150.227 13.3301V13.3453C150.227 14.4375 150.948 15.2415 152.033 15.2415C152.533 15.2415 152.988 15.0822 153.314 14.8395V13.8459H151.957V13.0343H154.217V15.2643C153.694 15.7118 152.943 16.091 152.002 16.091ZM156.064 16V10.6906H156.929L159.773 14.3617V10.6906H160.691V16H159.91L156.982 12.2228V16H156.064ZM167.453 16.0758C166.641 16.0758 165.875 15.7952 165.238 15.2263L165.799 14.5589C166.307 14.9988 166.816 15.2491 167.475 15.2491C168.052 15.2491 168.416 14.9836 168.416 14.5816V14.5665C168.416 14.1872 168.204 13.9824 167.218 13.7549C166.087 13.4818 165.45 13.1481 165.45 12.1697V12.1545C165.45 11.2443 166.209 10.6148 167.263 10.6148C168.037 10.6148 168.651 10.8499 169.19 11.2822L168.689 11.9876C168.211 11.6311 167.733 11.4415 167.248 11.4415C166.702 11.4415 166.383 11.7222 166.383 12.0711V12.0862C166.383 12.4958 166.626 12.6779 167.642 12.9206C168.765 13.1936 169.349 13.5956 169.349 14.4755V14.4906C169.349 15.4842 168.568 16.0758 167.453 16.0758ZM172.411 16V13.9066L170.302 10.6906H171.402L172.889 13.0419L174.391 10.6906H175.46L173.351 13.8838V16H172.411ZM178.502 16.0758C177.69 16.0758 176.924 15.7952 176.287 15.2263L176.848 14.5589C177.356 14.9988 177.864 15.2491 178.524 15.2491C179.101 15.2491 179.465 14.9836 179.465 14.5816V14.5665C179.465 14.1872 179.252 13.9824 178.266 13.7549C177.136 13.4818 176.499 13.1481 176.499 12.1697V12.1545C176.499 11.2443 177.258 10.6148 178.312 10.6148C179.086 10.6148 179.7 10.8499 180.238 11.2822L179.738 11.9876C179.26 11.6311 178.782 11.4415 178.297 11.4415C177.751 11.4415 177.432 11.7222 177.432 12.0711V12.0862C177.432 12.4958 177.675 12.6779 178.691 12.9206C179.814 13.1936 180.398 13.5956 180.398 14.4755V14.4906C180.398 15.4842 179.617 16.0758 178.502 16.0758ZM183.32 16V11.5553H181.637V10.6906H185.945V11.5553H184.261V16H183.32ZM187.566 16V10.6906H191.503V11.525H188.499V12.9054H191.161V13.7397H188.499V15.1657H191.541V16H187.566ZM193.279 16V10.6906H194.273L195.889 13.2012L197.504 10.6906H198.498V16H197.565V12.1924L195.889 14.6954H195.858L194.197 12.2076V16H193.279Z" fill="#7A7A7A"/>
<path fill-rule="evenodd" clip-rule="evenodd" d="M0 20H20V0H0V20Z" fill="#FFDF00"/>
<path fill-rule="evenodd" clip-rule="evenodd" d="M2.91522 18.7264C1.89238 18.7264 1.19875 18.2025 1.19875 17.2295V17.1921H1.76016V17.217C1.76016 17.8532 2.22166 18.2275 2.92023 18.2275C3.29445 18.2275 4.00551 18.0653 4.00551 17.4666C4.00551 16.3064 1.33598 17.1297 1.33598 15.4706C1.33598 14.6348 2.11434 14.2607 2.88777 14.2607C3.79843 14.2607 4.41706 14.7846 4.41706 15.6328V15.6703H3.85586V15.6328C3.85586 15.0839 3.46922 14.7596 2.84537 14.7596C2.40877 14.7596 1.89732 14.9468 1.89732 15.4457C1.89732 16.531 4.56671 15.77 4.56671 17.4415C4.56671 18.3272 3.7386 18.7264 2.91522 18.7264" fill="#CE181E"/>
<path fill-rule="evenodd" clip-rule="evenodd" d="M7.76019 16.4062C7.67299 16.481 7.4609 16.5185 7.34857 16.531L6.94937 16.5808C6.20092 16.6682 5.50242 16.8179 5.50242 17.4665C5.50242 18.003 5.96392 18.2275 6.37554 18.2275C6.79972 18.2275 7.17395 18.0777 7.43578 17.8158C7.64787 17.5913 7.76019 17.292 7.76019 16.9676V16.4062ZM7.85996 18.6016C7.79752 18.3771 7.79752 17.9281 7.79752 17.9281C7.58543 18.3897 7.09902 18.7264 6.33822 18.7264C5.46495 18.7264 4.94101 18.2524 4.94101 17.479C4.94101 16.3563 5.95136 16.244 6.93695 16.1318L7.14904 16.1068C7.5481 16.057 7.76019 16.007 7.76019 15.5703C7.76019 15.009 7.43578 14.7596 6.73742 14.7596C6.15104 14.7596 5.67704 15.009 5.67704 15.6453V15.6827H5.11563V15.6453C5.11563 14.6598 5.90148 14.2607 6.79972 14.2607C7.77275 14.2607 8.33169 14.6473 8.33169 15.558V17.8532C8.33169 18.0528 8.36697 18.477 8.41685 18.6016H7.85996Z" fill="#CE181E"/>
<path fill-rule="evenodd" clip-rule="evenodd" d="M10.5919 18.6017H9.98063L8.48366 14.3853H9.13439L10.2925 17.958L11.4383 14.3853H11.989H12.0389L10.5919 18.6017Z" fill="#CE181E"/>
<path fill-rule="evenodd" clip-rule="evenodd" d="M12.9933 13.2755C12.9933 13.0528 12.8098 12.8824 12.6003 12.8824C12.3907 12.8824 12.2074 13.0528 12.2074 13.2623C12.2074 13.4851 12.3907 13.6553 12.6003 13.6553C12.8098 13.6553 12.9933 13.4851 12.9933 13.2623V13.2755Z" fill="#CE181E"/>
<path fill-rule="evenodd" clip-rule="evenodd" d="M12.3132 18.6017V14.3853H12.8621H12.8998V18.6017H12.3132Z" fill="#CE181E"/>
<path fill-rule="evenodd" clip-rule="evenodd" d="M13.4735 18.6016V12.7886H14.0224H14.0598V18.6016H13.4735Z" fill="#CE181E"/>
<path fill-rule="evenodd" clip-rule="evenodd" d="M14.6214 18.6016V12.7886H15.1703H15.2077V18.6016H14.6214Z" fill="#CE181E"/>
<path fill-rule="evenodd" clip-rule="evenodd" d="M17.2606 18.7264C16.2253 18.7264 15.5316 18.2025 15.5316 17.2295V17.1921H16.0932V17.217C16.0932 17.8532 16.5671 18.2275 17.2532 18.2275C17.6273 18.2275 18.3509 18.0653 18.3509 17.4666C18.3509 16.3064 15.6688 17.1297 15.6688 15.4706C15.6688 14.6348 16.4474 14.2607 17.2207 14.2607C18.1439 14.2607 18.7626 14.7846 18.7626 15.6328V15.6703H18.2013V15.6328C18.2013 15.0839 17.8146 14.7596 17.1908 14.7596C16.7417 14.7596 16.2303 14.9468 16.2303 15.4457C16.2303 16.531 18.9122 15.77 18.9122 17.4415C18.9122 18.3272 18.084 18.7264 17.2606 18.7264" fill="#CE181E"/>
</g>
<defs>
<clipPath id="clip0_42_200">
<rect width="200" height="20" fill="white"/>
</clipPath>
</defs>
</svg>
