<svg width="200" height="20" viewBox="0 0 200 20" fill="none" xmlns="http://www.w3.org/2000/svg">
<g clip-path="url(#clip0_42_149)">
<path d="M26.9202 18V3.06521H33.6195C35.3263 3.06521 36.6705 3.53459 37.5239 4.38801C38.1853 5.04941 38.5266 5.86015 38.5266 6.86292V6.90559C38.5266 8.69776 37.5025 9.65786 36.3931 10.2339C38.1426 10.8313 39.3587 11.8341 39.3587 13.8609V13.9036C39.3587 16.5705 37.1612 18 33.8329 18H26.9202ZM29.5018 9.35916H33.0861C34.7716 9.35916 35.9024 8.69776 35.9024 7.3323V7.28962C35.9024 6.11618 34.9636 5.39077 33.2781 5.39077H29.5018V9.35916ZM29.5018 15.6744H33.8542C35.6464 15.6744 36.7345 14.9704 36.7345 13.6262V13.5836C36.7345 12.3248 35.7317 11.578 33.6622 11.578H29.5018V15.6744ZM42.0418 18V2.42515H44.6233V18H42.0418ZM51.7538 18.2347C49.2149 18.2347 47.7427 16.5279 47.7427 13.9036V6.73491H50.3243V13.1355C50.3243 14.885 51.1991 15.8878 52.7352 15.8878C54.2287 15.8878 55.2741 14.8424 55.2741 13.0929V6.73491H57.8557V18H55.2741V16.2505C54.5487 17.3173 53.5033 18.2347 51.7538 18.2347ZM66.138 18.256C62.8736 18.256 60.3561 15.8878 60.3561 12.4101V12.3675C60.3561 9.14581 62.639 6.50021 65.8606 6.50021C69.445 6.50021 71.2585 9.31649 71.2585 12.5595C71.2585 12.7942 71.2371 13.0288 71.2158 13.2849H62.9377C63.215 15.1197 64.5165 16.1438 66.1806 16.1438C67.4394 16.1438 68.3355 15.6744 69.2316 14.7997L70.7464 16.1438C69.6796 17.4239 68.2075 18.256 66.138 18.256ZM62.9163 11.578H68.6982C68.5275 9.91388 67.5461 8.61242 65.8393 8.61242C64.2604 8.61242 63.151 9.82854 62.9163 11.578ZM73.7246 21.4137V6.73491H76.3062V8.61242C77.1383 7.43897 78.3117 6.50021 80.1253 6.50021C82.7922 6.50021 85.3738 8.61242 85.3738 12.3461V12.3888C85.3738 16.1225 82.8135 18.2347 80.1253 18.2347C78.2691 18.2347 77.0956 17.2959 76.3062 16.2505V21.4137H73.7246ZM79.5279 15.9945C81.2987 15.9945 82.7495 14.6077 82.7495 12.3888V12.3461C82.7495 10.1699 81.2774 8.74043 79.5279 8.74043C77.7784 8.74043 76.2422 10.1912 76.2422 12.3461V12.3888C76.2422 14.565 77.7784 15.9945 79.5279 15.9945ZM87.8913 18V6.73491H90.4729V9.27382C91.1769 7.58832 92.4784 6.43621 94.4626 6.52155V9.25248H94.3132C92.0517 9.25248 90.4729 10.7246 90.4729 13.7116V18H87.8913ZM96.6209 5.00674V2.55316H99.3945V5.00674H96.6209ZM96.7276 18V6.73491H99.3091V18H96.7276ZM102.557 18V6.73491H105.138V8.48441C105.864 7.41764 106.909 6.50021 108.658 6.50021C111.197 6.50021 112.67 8.20705 112.67 10.8313V18H110.088V11.5994C110.088 9.84987 109.213 8.84711 107.677 8.84711C106.184 8.84711 105.138 9.89254 105.138 11.642V18H102.557ZM119.437 18.192C117.538 18.192 116.194 17.3599 116.194 14.885V8.95379H114.765V6.73491H116.194V3.64127H118.776V6.73491H121.805V8.95379H118.776V14.4797C118.776 15.4824 119.288 15.8878 120.162 15.8878C120.738 15.8878 121.25 15.7598 121.763 15.5038V17.616C121.122 17.9787 120.397 18.192 119.437 18.192Z" fill="white"/>
<path fill-rule="evenodd" clip-rule="evenodd" d="M0 20H20V0H0V20Z" fill="#FFDF00"/>
<path fill-rule="evenodd" clip-rule="evenodd" d="M2.91522 18.7264C1.89238 18.7264 1.19875 18.2025 1.19875 17.2295V17.1921H1.76016V17.217C1.76016 17.8532 2.22166 18.2275 2.92023 18.2275C3.29445 18.2275 4.00551 18.0653 4.00551 17.4666C4.00551 16.3064 1.33598 17.1297 1.33598 15.4706C1.33598 14.6348 2.11434 14.2607 2.88777 14.2607C3.79843 14.2607 4.41706 14.7846 4.41706 15.6328V15.6703H3.85586V15.6328C3.85586 15.0839 3.46922 14.7596 2.84537 14.7596C2.40877 14.7596 1.89732 14.9468 1.89732 15.4457C1.89732 16.531 4.56671 15.77 4.56671 17.4415C4.56671 18.3272 3.7386 18.7264 2.91522 18.7264" fill="#CE181E"/>
<path fill-rule="evenodd" clip-rule="evenodd" d="M7.76019 16.4062C7.67299 16.481 7.4609 16.5185 7.34857 16.531L6.94937 16.5808C6.20092 16.6682 5.50242 16.8179 5.50242 17.4665C5.50242 18.003 5.96392 18.2275 6.37554 18.2275C6.79972 18.2275 7.17395 18.0777 7.43578 17.8158C7.64787 17.5913 7.76019 17.292 7.76019 16.9676V16.4062ZM7.85996 18.6016C7.79752 18.3771 7.79752 17.9281 7.79752 17.9281C7.58543 18.3897 7.09902 18.7264 6.33822 18.7264C5.46495 18.7264 4.94101 18.2524 4.94101 17.479C4.94101 16.3563 5.95136 16.244 6.93695 16.1318L7.14904 16.1068C7.5481 16.057 7.76019 16.007 7.76019 15.5703C7.76019 15.009 7.43578 14.7596 6.73742 14.7596C6.15104 14.7596 5.67704 15.009 5.67704 15.6453V15.6827H5.11563V15.6453C5.11563 14.6598 5.90148 14.2607 6.79972 14.2607C7.77275 14.2607 8.33169 14.6473 8.33169 15.558V17.8532C8.33169 18.0528 8.36697 18.477 8.41685 18.6016H7.85996Z" fill="#CE181E"/>
<path fill-rule="evenodd" clip-rule="evenodd" d="M10.5919 18.6017H9.98063L8.48366 14.3853H9.13439L10.2925 17.958L11.4383 14.3853H11.989H12.0389L10.5919 18.6017Z" fill="#CE181E"/>
<path fill-rule="evenodd" clip-rule="evenodd" d="M12.9933 13.2755C12.9933 13.0528 12.8098 12.8824 12.6003 12.8824C12.3907 12.8824 12.2074 13.0528 12.2074 13.2623C12.2074 13.4851 12.3907 13.6553 12.6003 13.6553C12.8098 13.6553 12.9933 13.4851 12.9933 13.2623V13.2755Z" fill="#CE181E"/>
<path fill-rule="evenodd" clip-rule="evenodd" d="M12.3132 18.6017V14.3853H12.8621H12.8998V18.6017H12.3132Z" fill="#CE181E"/>
<path fill-rule="evenodd" clip-rule="evenodd" d="M13.4735 18.6016V12.7886H14.0224H14.0598V18.6016H13.4735Z" fill="#CE181E"/>
<path fill-rule="evenodd" clip-rule="evenodd" d="M14.6214 18.6016V12.7886H15.1703H15.2077V18.6016H14.6214Z" fill="#CE181E"/>
<path fill-rule="evenodd" clip-rule="evenodd" d="M17.2606 18.7264C16.2253 18.7264 15.5316 18.2025 15.5316 17.2295V17.1921H16.0932V17.217C16.0932 17.8532 16.5671 18.2275 17.2532 18.2275C17.6273 18.2275 18.3509 18.0653 18.3509 17.4666C18.3509 16.3064 15.6688 17.1297 15.6688 15.4706C15.6688 14.6348 16.4474 14.2607 17.2207 14.2607C18.1439 14.2607 18.7626 14.7846 18.7626 15.6328V15.6703H18.2013V15.6328C18.2013 15.0839 17.8146 14.7596 17.1908 14.7596C16.7417 14.7596 16.2303 14.9468 16.2303 15.4457C16.2303 16.531 18.9122 15.77 18.9122 17.4415C18.9122 18.3272 18.084 18.7264 17.2606 18.7264" fill="#CE181E"/>
</g>
<defs>
<clipPath id="clip0_42_149">
<rect width="200" height="20" fill="white"/>
</clipPath>
</defs>
</svg>
