<svg width="200" height="20" viewBox="0 0 200 20" fill="none" xmlns="http://www.w3.org/2000/svg">
<g clip-path="url(#clip0_42_168)">
<path d="M26.9202 18V3.06521H33.6195C35.3263 3.06521 36.6705 3.53459 37.5239 4.38801C38.1853 5.04941 38.5266 5.86015 38.5266 6.86292V6.90559C38.5266 8.69776 37.5025 9.65786 36.3931 10.2339C38.1426 10.8313 39.3587 11.8341 39.3587 13.8609V13.9036C39.3587 16.5705 37.1612 18 33.8329 18H26.9202ZM29.5018 9.35916H33.0861C34.7716 9.35916 35.9024 8.69776 35.9024 7.3323V7.28962C35.9024 6.11618 34.9636 5.39077 33.2781 5.39077H29.5018V9.35916ZM29.5018 15.6744H33.8542C35.6464 15.6744 36.7345 14.9704 36.7345 13.6262V13.5836C36.7345 12.3248 35.7317 11.578 33.6622 11.578H29.5018V15.6744ZM42.0418 18V2.42515H44.6233V18H42.0418ZM51.7538 18.2347C49.2149 18.2347 47.7427 16.5279 47.7427 13.9036V6.73491H50.3243V13.1355C50.3243 14.885 51.1991 15.8878 52.7352 15.8878C54.2287 15.8878 55.2741 14.8424 55.2741 13.0929V6.73491H57.8557V18H55.2741V16.2505C54.5487 17.3173 53.5033 18.2347 51.7538 18.2347ZM66.138 18.256C62.8736 18.256 60.3561 15.8878 60.3561 12.4101V12.3675C60.3561 9.14581 62.639 6.50021 65.8606 6.50021C69.445 6.50021 71.2585 9.31649 71.2585 12.5595C71.2585 12.7942 71.2371 13.0288 71.2158 13.2849H62.9377C63.215 15.1197 64.5165 16.1438 66.1806 16.1438C67.4394 16.1438 68.3355 15.6744 69.2316 14.7997L70.7464 16.1438C69.6796 17.4239 68.2075 18.256 66.138 18.256ZM62.9163 11.578H68.6982C68.5275 9.91388 67.5461 8.61242 65.8393 8.61242C64.2604 8.61242 63.151 9.82854 62.9163 11.578ZM73.7246 21.4137V6.73491H76.3062V8.61242C77.1383 7.43897 78.3117 6.50021 80.1253 6.50021C82.7922 6.50021 85.3738 8.61242 85.3738 12.3461V12.3888C85.3738 16.1225 82.8135 18.2347 80.1253 18.2347C78.2691 18.2347 77.0956 17.2959 76.3062 16.2505V21.4137H73.7246ZM79.5279 15.9945C81.2987 15.9945 82.7495 14.6077 82.7495 12.3888V12.3461C82.7495 10.1699 81.2774 8.74043 79.5279 8.74043C77.7784 8.74043 76.2422 10.1912 76.2422 12.3461V12.3888C76.2422 14.565 77.7784 15.9945 79.5279 15.9945ZM87.8913 18V6.73491H90.4729V9.27382C91.1769 7.58832 92.4784 6.43621 94.4626 6.52155V9.25248H94.3132C92.0517 9.25248 90.4729 10.7246 90.4729 13.7116V18H87.8913ZM96.6209 5.00674V2.55316H99.3945V5.00674H96.6209ZM96.7276 18V6.73491H99.3091V18H96.7276ZM102.557 18V6.73491H105.138V8.48441C105.864 7.41764 106.909 6.50021 108.658 6.50021C111.197 6.50021 112.67 8.20705 112.67 10.8313V18H110.088V11.5994C110.088 9.84987 109.213 8.84711 107.677 8.84711C106.184 8.84711 105.138 9.89254 105.138 11.642V18H102.557ZM119.437 18.192C117.538 18.192 116.194 17.3599 116.194 14.885V8.95379H114.765V6.73491H116.194V3.64127H118.776V6.73491H121.805V8.95379H118.776V14.4797C118.776 15.4824 119.288 15.8878 120.162 15.8878C120.738 15.8878 121.25 15.7598 121.763 15.5038V17.616C121.122 17.9787 120.397 18.192 119.437 18.192Z" fill="#1A1A1A"/>
<path fill-rule="evenodd" clip-rule="evenodd" d="M0 20H20V0H0V20Z" fill="#FFDF00"/>
<path fill-rule="evenodd" clip-rule="evenodd" d="M2.91522 18.7264C1.89238 18.7264 1.19875 18.2025 1.19875 17.2295V17.1921H1.76016V17.217C1.76016 17.8532 2.22166 18.2275 2.92023 18.2275C3.29445 18.2275 4.00551 18.0653 4.00551 17.4666C4.00551 16.3064 1.33598 17.1297 1.33598 15.4706C1.33598 14.6348 2.11434 14.2607 2.88777 14.2607C3.79843 14.2607 4.41706 14.7846 4.41706 15.6328V15.6703H3.85586V15.6328C3.85586 15.0839 3.46922 14.7596 2.84537 14.7596C2.40877 14.7596 1.89732 14.9468 1.89732 15.4457C1.89732 16.531 4.56671 15.77 4.56671 17.4415C4.56671 18.3272 3.7386 18.7264 2.91522 18.7264" fill="#CE181E"/>
<path fill-rule="evenodd" clip-rule="evenodd" d="M7.76019 16.4062C7.67299 16.481 7.4609 16.5185 7.34857 16.531L6.94937 16.5808C6.20092 16.6682 5.50242 16.8179 5.50242 17.4665C5.50242 18.003 5.96392 18.2275 6.37554 18.2275C6.79972 18.2275 7.17395 18.0777 7.43578 17.8158C7.64787 17.5913 7.76019 17.292 7.76019 16.9676V16.4062ZM7.85996 18.6016C7.79752 18.3771 7.79752 17.9281 7.79752 17.9281C7.58543 18.3897 7.09902 18.7264 6.33822 18.7264C5.46495 18.7264 4.94101 18.2524 4.94101 17.479C4.94101 16.3563 5.95136 16.244 6.93695 16.1318L7.14904 16.1068C7.5481 16.057 7.76019 16.007 7.76019 15.5703C7.76019 15.009 7.43578 14.7596 6.73742 14.7596C6.15104 14.7596 5.67704 15.009 5.67704 15.6453V15.6827H5.11563V15.6453C5.11563 14.6598 5.90148 14.2607 6.79972 14.2607C7.77275 14.2607 8.33169 14.6473 8.33169 15.558V17.8532C8.33169 18.0528 8.36697 18.477 8.41685 18.6016H7.85996Z" fill="#CE181E"/>
<path fill-rule="evenodd" clip-rule="evenodd" d="M10.5919 18.6017H9.98063L8.48366 14.3853H9.13439L10.2925 17.958L11.4383 14.3853H11.989H12.0389L10.5919 18.6017Z" fill="#CE181E"/>
<path fill-rule="evenodd" clip-rule="evenodd" d="M12.9933 13.2755C12.9933 13.0528 12.8098 12.8824 12.6003 12.8824C12.3907 12.8824 12.2074 13.0528 12.2074 13.2623C12.2074 13.4851 12.3907 13.6553 12.6003 13.6553C12.8098 13.6553 12.9933 13.4851 12.9933 13.2623V13.2755Z" fill="#CE181E"/>
<path fill-rule="evenodd" clip-rule="evenodd" d="M12.3132 18.6017V14.3853H12.8621H12.8998V18.6017H12.3132Z" fill="#CE181E"/>
<path fill-rule="evenodd" clip-rule="evenodd" d="M13.4735 18.6016V12.7886H14.0224H14.0598V18.6016H13.4735Z" fill="#CE181E"/>
<path fill-rule="evenodd" clip-rule="evenodd" d="M14.6214 18.6016V12.7886H15.1703H15.2077V18.6016H14.6214Z" fill="#CE181E"/>
<path fill-rule="evenodd" clip-rule="evenodd" d="M17.2606 18.7264C16.2253 18.7264 15.5316 18.2025 15.5316 17.2295V17.1921H16.0932V17.217C16.0932 17.8532 16.5671 18.2275 17.2532 18.2275C17.6273 18.2275 18.3509 18.0653 18.3509 17.4666C18.3509 16.3064 15.6688 17.1297 15.6688 15.4706C15.6688 14.6348 16.4474 14.2607 17.2207 14.2607C18.1439 14.2607 18.7626 14.7846 18.7626 15.6328V15.6703H18.2013V15.6328C18.2013 15.0839 17.8146 14.7596 17.1908 14.7596C16.7417 14.7596 16.2303 14.9468 16.2303 15.4457C16.2303 16.531 18.9122 15.77 18.9122 17.4415C18.9122 18.3272 18.084 18.7264 17.2606 18.7264" fill="#CE181E"/>
<path d="M127.683 18V12.6906H129.662C131.331 12.6906 132.484 13.8359 132.484 15.3301V15.3453C132.484 16.8395 131.331 18 129.662 18H127.683ZM128.616 17.1505H129.662C130.777 17.1505 131.505 16.3996 131.505 15.3605V15.3453C131.505 14.3062 130.777 13.5401 129.662 13.5401H128.616V17.1505ZM134.248 18V12.6906H138.184V13.525H135.181V14.9054H137.843V15.7397H135.181V17.1657H138.222V18H134.248ZM141.819 18.0758C141.008 18.0758 140.242 17.7952 139.605 17.2263L140.166 16.5589C140.674 16.9988 141.182 17.2491 141.842 17.2491C142.419 17.2491 142.783 16.9836 142.783 16.5816V16.5665C142.783 16.1872 142.57 15.9824 141.584 15.7549C140.454 15.4818 139.817 15.1481 139.817 14.1697V14.1545C139.817 13.2443 140.575 12.6148 141.63 12.6148C142.403 12.6148 143.018 12.8499 143.556 13.2822L143.056 13.9876C142.578 13.6311 142.1 13.4415 141.615 13.4415C141.068 13.4415 140.75 13.7222 140.75 14.0711V14.0862C140.75 14.4958 140.993 14.6779 142.009 14.9206C143.132 15.1936 143.716 15.5956 143.716 16.4755V16.4906C143.716 17.4842 142.934 18.0758 141.819 18.0758ZM145.498 18V12.6906H146.431V18H145.498ZM151.002 18.091C149.341 18.091 148.249 16.9078 148.249 15.3605V15.3453C148.249 13.8587 149.387 12.5996 150.987 12.5996C151.912 12.5996 152.481 12.8575 153.027 13.3202L152.436 14.0256C152.026 13.6767 151.624 13.4567 150.949 13.4567C149.971 13.4567 149.227 14.3138 149.227 15.3301V15.3453C149.227 16.4375 149.948 17.2415 151.033 17.2415C151.533 17.2415 151.988 17.0822 152.314 16.8395V15.8459H150.957V15.0343H153.217V17.2643C152.694 17.7118 151.943 18.091 151.002 18.091ZM155.064 18V12.6906H155.929L158.773 16.3617V12.6906H159.691V18H158.91L155.982 14.2228V18H155.064ZM166.453 18.0758C165.641 18.0758 164.875 17.7952 164.238 17.2263L164.799 16.5589C165.307 16.9988 165.816 17.2491 166.475 17.2491C167.052 17.2491 167.416 16.9836 167.416 16.5816V16.5665C167.416 16.1872 167.204 15.9824 166.218 15.7549C165.087 15.4818 164.45 15.1481 164.45 14.1697V14.1545C164.45 13.2443 165.209 12.6148 166.263 12.6148C167.037 12.6148 167.651 12.8499 168.19 13.2822L167.689 13.9876C167.211 13.6311 166.733 13.4415 166.248 13.4415C165.702 13.4415 165.383 13.7222 165.383 14.0711V14.0862C165.383 14.4958 165.626 14.6779 166.642 14.9206C167.765 15.1936 168.349 15.5956 168.349 16.4755V16.4906C168.349 17.4842 167.568 18.0758 166.453 18.0758ZM171.411 18V15.9066L169.302 12.6906H170.402L171.889 15.0419L173.391 12.6906H174.46L172.351 15.8838V18H171.411ZM177.502 18.0758C176.69 18.0758 175.924 17.7952 175.287 17.2263L175.848 16.5589C176.356 16.9988 176.864 17.2491 177.524 17.2491C178.101 17.2491 178.465 16.9836 178.465 16.5816V16.5665C178.465 16.1872 178.252 15.9824 177.266 15.7549C176.136 15.4818 175.499 15.1481 175.499 14.1697V14.1545C175.499 13.2443 176.258 12.6148 177.312 12.6148C178.086 12.6148 178.7 12.8499 179.238 13.2822L178.738 13.9876C178.26 13.6311 177.782 13.4415 177.297 13.4415C176.751 13.4415 176.432 13.7222 176.432 14.0711V14.0862C176.432 14.4958 176.675 14.6779 177.691 14.9206C178.814 15.1936 179.398 15.5956 179.398 16.4755V16.4906C179.398 17.4842 178.617 18.0758 177.502 18.0758ZM182.32 18V13.5553H180.637V12.6906H184.945V13.5553H183.261V18H182.32ZM186.566 18V12.6906H190.503V13.525H187.499V14.9054H190.161V15.7397H187.499V17.1657H190.541V18H186.566ZM192.279 18V12.6906H193.273L194.889 15.2012L196.504 12.6906H197.498V18H196.565V14.1924L194.889 16.6954H194.858L193.197 14.2076V18H192.279Z" fill="#7A7A7A"/>
</g>
<defs>
<clipPath id="clip0_42_168">
<rect width="200" height="20" fill="white"/>
</clipPath>
</defs>
</svg>
