<svg width="151" height="43" viewBox="0 0 151 43" fill="none" xmlns="http://www.w3.org/2000/svg">
<g clip-path="url(#clip0_42_114)">
<path d="M54.6178 26.0203V11.0855H61.3171C63.0239 11.0855 64.3681 11.5549 65.2215 12.4083C65.8829 13.0697 66.2242 13.8805 66.2242 14.8832V14.9259C66.2242 16.7181 65.2001 17.6782 64.0907 18.2542C65.8402 18.8516 67.0563 19.8544 67.0563 21.8813V21.9239C67.0563 24.5909 64.8588 26.0203 61.5304 26.0203H54.6178ZM57.1994 17.3795H60.7837C62.4692 17.3795 63.6 16.7181 63.6 15.3526V15.3099C63.6 14.1365 62.6612 13.4111 60.9757 13.4111H57.1994V17.3795ZM57.1994 23.6948H61.5518C63.344 23.6948 64.4321 22.9907 64.4321 21.6466V21.6039C64.4321 20.3451 63.4293 19.5984 61.3598 19.5984H57.1994V23.6948ZM69.7393 26.0203V10.4455H72.3209V26.0203H69.7393ZM79.4514 26.255C76.9125 26.255 75.4403 24.5482 75.4403 21.9239V14.7552H78.0219V21.1559C78.0219 22.9054 78.8967 23.9081 80.4328 23.9081C81.9263 23.9081 82.9717 22.8627 82.9717 21.1132V14.7552H85.5533V26.0203H82.9717V24.2708C82.2463 25.3376 81.2009 26.255 79.4514 26.255ZM93.8355 26.2763C90.5712 26.2763 88.0537 23.9081 88.0537 20.4304V20.3878C88.0537 17.1661 90.3365 14.5205 93.5582 14.5205C97.1425 14.5205 98.956 17.3368 98.956 20.5798C98.956 20.8145 98.9347 21.0492 98.9134 21.3052H90.6352C90.9126 23.14 92.2141 24.1641 93.8782 24.1641C95.137 24.1641 96.0331 23.6948 96.9292 22.82L98.444 24.1641C97.3772 25.4443 95.9051 26.2763 93.8355 26.2763ZM90.6139 19.5984H96.3958C96.2251 17.9342 95.2437 16.6327 93.5369 16.6327C91.958 16.6327 90.8486 17.8489 90.6139 19.5984ZM101.422 29.434V14.7552H104.004V16.6327C104.836 15.4593 106.009 14.5205 107.823 14.5205C110.49 14.5205 113.071 16.6327 113.071 20.3664V20.4091C113.071 24.1428 110.511 26.255 107.823 26.255C105.967 26.255 104.793 25.3163 104.004 24.2708V29.434H101.422ZM107.225 24.0148C108.996 24.0148 110.447 22.628 110.447 20.4091V20.3664C110.447 18.1902 108.975 16.7608 107.225 16.7608C105.476 16.7608 103.94 18.2116 103.94 20.3664V20.4091C103.94 22.5853 105.476 24.0148 107.225 24.0148ZM115.589 26.0203V14.7552H118.17V17.2941C118.875 15.6086 120.176 14.4565 122.16 14.5419V17.2728H122.011C119.749 17.2728 118.17 18.745 118.17 21.7319V26.0203H115.589ZM124.318 13.0271V10.5735H127.092V13.0271H124.318ZM124.425 26.0203V14.7552H127.007V26.0203H124.425ZM130.254 26.0203V14.7552H132.836V16.5047C133.561 15.438 134.607 14.5205 136.356 14.5205C138.895 14.5205 140.367 16.2274 140.367 18.8516V26.0203H137.786V19.6197C137.786 17.8702 136.911 16.8674 135.375 16.8674C133.881 16.8674 132.836 17.9129 132.836 19.6624V26.0203H130.254ZM147.135 26.2123C145.236 26.2123 143.892 25.3803 143.892 22.9054V16.9741H142.462V14.7552H143.892V11.6616H146.473V14.7552H149.503V16.9741H146.473V22.5C146.473 23.5027 146.985 23.9081 147.86 23.9081C148.436 23.9081 148.948 23.7801 149.46 23.5241V25.6363C148.82 25.999 148.095 26.2123 147.135 26.2123Z" fill="#1A1A1A"/>
<path d="M53.7762 40.4068V35.0974H55.7558C57.4245 35.0974 58.5774 36.2427 58.5774 37.7369V37.7521C58.5774 39.2463 57.4245 40.4068 55.7558 40.4068H53.7762ZM54.7091 39.5573H55.7558C56.8708 39.5573 57.5989 38.8064 57.5989 37.7673V37.7521C57.5989 36.713 56.8708 35.9469 55.7558 35.9469H54.7091V39.5573ZM60.3413 40.4068V35.0974H64.2778V35.9317H61.2742V37.3122H63.9365V38.1465H61.2742V39.5724H64.3157V40.4068H60.3413ZM67.9129 40.4826C67.1013 40.4826 66.3352 40.202 65.6981 39.6331L66.2594 38.9657C66.7675 39.4056 67.2757 39.6559 67.9356 39.6559C68.5121 39.6559 68.8761 39.3904 68.8761 38.9884V38.9732C68.8761 38.594 68.6638 38.3892 67.6777 38.1617C66.5476 37.8886 65.9105 37.5549 65.9105 36.5764V36.5613C65.9105 35.6511 66.6689 35.0215 67.7232 35.0215C68.4969 35.0215 69.1113 35.2567 69.6498 35.689L69.1492 36.3944C68.6713 36.0379 68.1935 35.8483 67.7081 35.8483C67.162 35.8483 66.8434 36.1289 66.8434 36.4778V36.493C66.8434 36.9026 67.0861 37.0846 68.1025 37.3273C69.225 37.6004 69.8091 38.0024 69.8091 38.8822V38.8974C69.8091 39.891 69.0278 40.4826 67.9129 40.4826ZM71.5914 40.4068V35.0974H72.5243V40.4068H71.5914ZM77.0958 40.4978C75.4347 40.4978 74.3425 39.3146 74.3425 37.7673V37.7521C74.3425 36.2655 75.4802 35.0064 77.0806 35.0064C78.006 35.0064 78.5748 35.2643 79.1209 35.7269L78.5293 36.4323C78.1197 36.0834 77.7177 35.8635 77.0427 35.8635C76.0642 35.8635 75.3209 36.7205 75.3209 37.7369V37.7521C75.3209 38.8443 76.0415 39.6483 77.1261 39.6483C77.6267 39.6483 78.0818 39.489 78.408 39.2463V38.2527H77.0503V37.4411H79.3105V39.671C78.7872 40.1185 78.0363 40.4978 77.0958 40.4978ZM81.1575 40.4068V35.0974H82.0222L84.8665 38.7684V35.0974H85.7843V40.4068H85.003L82.0753 36.6295V40.4068H81.1575ZM92.5462 40.4826C91.7347 40.4826 90.9686 40.202 90.3315 39.6331L90.8927 38.9657C91.4009 39.4056 91.9091 39.6559 92.569 39.6559C93.1454 39.6559 93.5095 39.3904 93.5095 38.9884V38.9732C93.5095 38.594 93.2971 38.3892 92.3111 38.1617C91.181 37.8886 90.5438 37.5549 90.5438 36.5764V36.5613C90.5438 35.6511 91.3023 35.0215 92.3566 35.0215C93.1303 35.0215 93.7446 35.2567 94.2832 35.689L93.7826 36.3944C93.3047 36.0379 92.8269 35.8483 92.3414 35.8483C91.7953 35.8483 91.4768 36.1289 91.4768 36.4778V36.493C91.4768 36.9026 91.7195 37.0846 92.7358 37.3273C93.8584 37.6004 94.4424 38.0024 94.4424 38.8822V38.8974C94.4424 39.891 93.6612 40.4826 92.5462 40.4826ZM97.5045 40.4068V38.3134L95.3959 35.0974H96.4957L97.9823 37.4487L99.4841 35.0974H100.554L98.445 38.2906V40.4068H97.5045ZM103.595 40.4826C102.783 40.4826 102.017 40.202 101.38 39.6331L101.942 38.9657C102.45 39.4056 102.958 39.6559 103.618 39.6559C104.194 39.6559 104.558 39.3904 104.558 38.9884V38.9732C104.558 38.594 104.346 38.3892 103.36 38.1617C102.23 37.8886 101.593 37.5549 101.593 36.5764V36.5613C101.593 35.6511 102.351 35.0215 103.405 35.0215C104.179 35.0215 104.793 35.2567 105.332 35.689L104.831 36.3944C104.354 36.0379 103.876 35.8483 103.39 35.8483C102.844 35.8483 102.526 36.1289 102.526 36.4778V36.493C102.526 36.9026 102.768 37.0846 103.785 37.3273C104.907 37.6004 105.491 38.0024 105.491 38.8822V38.8974C105.491 39.891 104.71 40.4826 103.595 40.4826ZM108.414 40.4068V35.9621H106.73V35.0974H111.038V35.9621H109.354V40.4068H108.414ZM112.66 40.4068V35.0974H116.596V35.9317H113.593V37.3122H116.255V38.1465H113.593V39.5724H116.634V40.4068H112.66ZM118.373 40.4068V35.0974H119.367L120.982 37.608L122.598 35.0974H123.591V40.4068H122.658V36.5992L120.982 39.1022H120.952L119.291 36.6144V40.4068H118.373Z" fill="#666666"/>
<path fill-rule="evenodd" clip-rule="evenodd" d="M0 42.7278H42.0901V0H0V42.7278Z" fill="#FFDF00"/>
<path fill-rule="evenodd" clip-rule="evenodd" d="M6.13508 40.0069C3.98251 40.0069 2.52276 38.8875 2.52276 36.8089V36.729H3.70425V36.7822C3.70425 38.1414 4.67548 38.9411 6.14562 38.9411C6.93318 38.9411 8.42961 38.5945 8.42961 37.3154C8.42961 34.8367 2.81156 36.5956 2.81156 33.0511C2.81156 31.2657 4.44964 30.4663 6.07732 30.4663C7.99381 30.4663 9.29572 31.5855 9.29572 33.3976V33.4778H8.11467V33.3976C8.11467 32.2249 7.30098 31.5322 5.98808 31.5322C5.06926 31.5322 3.9929 31.9321 3.9929 32.998C3.9929 35.3165 9.61065 33.6908 9.61065 37.2619C9.61065 39.154 7.86789 40.0069 6.13508 40.0069" fill="#CE181E"/>
<path fill-rule="evenodd" clip-rule="evenodd" d="M16.3313 35.0501C16.1478 35.2098 15.7015 35.29 15.4651 35.3166L14.625 35.4231C13.0498 35.6097 11.5798 35.9296 11.5798 37.3153C11.5798 38.4613 12.5511 38.941 13.4173 38.941C14.31 38.941 15.0976 38.6211 15.6486 38.0616C16.095 37.5818 16.3313 36.9424 16.3313 36.2493V35.0501ZM16.5413 39.7403C16.4099 39.2607 16.4099 38.3014 16.4099 38.3014C15.9635 39.2875 14.9399 40.007 13.3388 40.007C11.501 40.007 10.3984 38.9943 10.3984 37.342C10.3984 34.9435 12.5247 34.7035 14.5988 34.4638L15.0452 34.4105C15.885 34.3039 16.3313 34.1972 16.3313 33.2643C16.3313 32.0651 15.6486 31.5322 14.1789 31.5322C12.9449 31.5322 11.9473 32.0651 11.9473 33.4244V33.5043H10.7659V33.4244C10.7659 31.3191 12.4197 30.4664 14.31 30.4664C16.3578 30.4664 17.5341 31.2924 17.5341 33.2379V38.1415C17.5341 38.5677 17.6083 39.4741 17.7133 39.7403H16.5413Z" fill="#CE181E"/>
<path fill-rule="evenodd" clip-rule="evenodd" d="M22.2907 39.7403H21.0043L17.8539 30.7326H19.2233L21.6606 38.3653L24.0719 30.7326H25.2309H25.3358L22.2907 39.7403Z" fill="#CE181E"/>
<path fill-rule="evenodd" clip-rule="evenodd" d="M27.3444 28.3617C27.3444 27.8859 26.9583 27.5219 26.5173 27.5219C26.0762 27.5219 25.6904 27.8859 25.6904 28.3335C25.6904 28.8095 26.0762 29.1731 26.5173 29.1731C26.9583 29.1731 27.3444 28.8095 27.3444 28.3335V28.3617Z" fill="#CE181E"/>
<path fill-rule="evenodd" clip-rule="evenodd" d="M25.9132 39.7403V30.7326H27.0683H27.1475V39.7403H25.9132Z" fill="#CE181E"/>
<path fill-rule="evenodd" clip-rule="evenodd" d="M28.3551 39.7403V27.3215H29.5101H29.5888V39.7403H28.3551Z" fill="#CE181E"/>
<path fill-rule="evenodd" clip-rule="evenodd" d="M30.7708 39.7403V27.3215H31.9259H32.0046V39.7403H30.7708Z" fill="#CE181E"/>
<path fill-rule="evenodd" clip-rule="evenodd" d="M36.3251 40.0069C34.1462 40.0069 32.6863 38.8875 32.6863 36.8089V36.729H33.8681V36.7822C33.8681 38.1414 34.8655 38.9411 36.3095 38.9411C37.0967 38.9411 38.6196 38.5945 38.6196 37.3154C38.6196 34.8367 32.9751 36.5956 32.9751 33.0511C32.9751 31.2657 34.6135 30.4663 36.241 30.4663C38.1838 30.4663 39.4859 31.5855 39.4859 33.3976V33.4778H38.3047V33.3976C38.3047 32.2249 37.491 31.5322 36.1781 31.5322C35.233 31.5322 34.1566 31.9321 34.1566 32.998C34.1566 35.3165 39.8008 33.6908 39.8008 37.2619C39.8008 39.154 38.0579 40.0069 36.3251 40.0069" fill="#CE181E"/>
</g>
<defs>
<clipPath id="clip0_42_114">
<rect width="151" height="42.7278" fill="white"/>
</clipPath>
</defs>
</svg>
